<?xml version="1.0" encoding="UTF-8"?>
<svg id="SVGRoot" width="32" height="32" version="1.1" viewBox="0 0 32 32" xml:space="preserve" xmlns="http://www.w3.org/2000/svg"><g fill="currentColor" stroke="currentColor"><path d="m9.7344 13.287 6.4146-2.1382 2.1883-6.4146h1.386l2.1277 6.4146 6.4146 2.1382v1.4255l-6.4146 1.4255-2.1382 7.1274h-1.4255l-2.1382-7.1274-6.4146-1.4255z" stroke-width="1.4688"/><path d="m3.6681 23.128 3.3452-1.1151 1.1411-3.3452h0.72276l1.1096 3.3452 3.3452 1.1151v0.74337l-3.3452 0.74337-1.1151 3.7168h-0.74337l-1.1151-3.7168-3.3452-0.74337z" stroke-width="1.3362"/><path d="m4.5109 6.7316 2.4155-0.80518 0.82402-2.4155h0.5219l0.80122 2.4155 2.4155 0.80518v0.53678l-2.4155 0.53678-0.80518 2.6839h-0.53678l-0.80518-2.6839-2.4155-0.53678z" stroke-width="1.0218"/></g></svg>
