<?xml version="1.0" encoding="UTF-8"?>
<svg width="32" height="32" version="1.1" viewBox="0 0 32 32" xmlns="http://www.w3.org/2000/svg">
 <g fill="none" stroke="currentColor">
  <path d="m7.8078 13.216 7.0561-2.352 2.4071-7.0561h1.5245l2.3405 7.0561 7.0561 2.352v1.568l-7.0561 1.568-2.352 7.8401h-1.568l-2.352-7.8401-7.0561-1.568z" stroke-width="1.6157"/>
  <path d="m3.6681 23.128 3.3452-1.1151 1.1411-3.3452h0.72276l1.1096 3.3452 3.3452 1.1151v0.74337l-3.3452 0.74337-1.1151 3.7168h-0.74337l-1.1151-3.7168-3.3452-0.74337z" stroke-width="1.3362"/>
  <path d="m5.5109 6.7316 2.4155-0.80518 0.82402-2.4155h0.5219l0.80122 2.4155 2.4155 0.80518v0.53678l-2.4155 0.53678-0.80518 2.6839h-0.53678l-0.80518-2.6839-2.4155-0.53678z" stroke-width="1.0218"/>
 </g>
</svg>
