<?xml version="1.0" encoding="UTF-8"?>
<svg width="32" height="32" version="1.1" viewBox="0 0 32 32" xmlns="http://www.w3.org/2000/svg">
 <g transform="translate(.063051 1.1459)" fill="currentColor" stroke="currentColor" stroke-width="0.3">
  <path d="m23.215 24.914h4.9512c0.38117-0.09629 0.79436-0.50851 0.86523-0.85352 0.07087-0.345 0.01165-0.64527-0.08008-0.95703-0.18344-0.62352-0.55356-1.3036-1.0215-2.002-0.93586-1.3967-2.16-2.8251-3.4727-3.2988-0.26283-0.09485-0.39562-0.08635-0.65039-0.10742-0.25478-0.02106-0.57056-0.03761-0.93164-0.05078-0.72216-0.02632-1.6246-0.03759-2.5254-0.03711-0.53833 2.85e-4 -1.0524 0.0076-1.5449 0.01758 0.65288 0.25464 1.2921 0.73155 1.8887 1.3242 0.76943 0.0025 1.527 0.01307 2.1328 0.03516 0.3484 0.0127 0.64862 0.02865 0.86914 0.04687 0.16359 0.01352 0.31751 0.04737 0.33789 0.04687 0.62981 0.25372 1.9586 1.5389 2.7832 2.7695 0.41923 0.62566 0.73339 1.2464 0.84766 1.6348 0.01675 0.05693 8e-3 0.04574 0.01563 0.08984h-4.0605c0.04881 0.2335 0.06791 0.46619 0.01563 0.7207-0.04351 0.21181-0.21068 0.44506-0.41992 0.62109z" style="paint-order:markers fill stroke"/>
  <path d="m17.176 13.709c0.84118 0.78378 1.9661 1.2676 3.2012 1.2676 2.5916 0 4.707-2.1154 4.707-4.707s-2.1154-4.709-4.707-4.709c-0.84374 0-1.6362 0.22697-2.3223 0.61914 0.3016 0.33135 0.55817 0.70291 0.76367 1.1055 0.46555-0.24276 0.99446-0.38086 1.5586-0.38086 1.8668 0 3.3652 1.4984 3.3652 3.3652 0 1.8668-1.4984 3.3652-3.3652 3.3652-0.8474 0-1.6175-0.31032-2.207-0.82227-0.28974 0.34139-0.62445 0.64205-0.99414 0.89648z" style="paint-order:markers fill stroke"/>
  <path d="m12.114 17.387c-0.97292 5.14e-4 -1.9426 0.01444-2.7128 0.04311-0.38514 0.01433-0.7197 0.03227-0.98714 0.0546s-0.38848 1e-3 -0.68252 0.11639c-1.3617 0.53417-2.693 2.0698-3.7 3.5664-0.50347 0.7483-0.90168 1.4756-1.0992 2.1338-0.09877 0.32908-0.16173 0.64498-0.08909 1.003 0.07265 0.35796 0.41822 0.75746 0.81184 0.85208l0.07759 0.01868h16.822c0.39445-0.09965 0.81585-0.51972 0.88944-0.87794 0.07359-0.35822 0.01151-0.67654-0.08621-1.0087-0.19544-0.66431-0.59266-1.3979-1.0963-2.1496-1.0074-1.5034-2.3369-3.0416-3.7273-3.5434-0.26874-0.09698-0.41578-0.08943-0.68971-0.11208-0.27393-0.02265-0.61328-0.0404-1.0029-0.0546-0.77934-0.02841-1.7543-0.04218-2.7272-0.04167zm0.0015 1.3406c0.95994-5.08e-4 1.9229 0.01418 2.6769 0.04167 0.37699 0.01374 0.70149 0.03047 0.94116 0.05029 0.23968 0.01982 0.45516 0.07717 0.34485 0.03736 0.69381 0.25038 2.1592 1.6709 3.0692 3.029 0.45498 0.67902 0.79622 1.3526 0.92248 1.7817 0.02918 0.09918 0.01998 0.10393 0.0273 0.16668h-15.905c8e-3 -0.0594-0.0023-0.05758 0.02443-0.14656 0.1273-0.42413 0.47102-1.0928 0.92679-1.7702 0.91155-1.3548 2.3696-2.7899 3.0778-3.0678-0.15351 0.06022 0.07188-0.0093 0.30462-0.02874 0.23274-0.01943 0.55278-0.03642 0.92536-0.05029 0.74515-0.02773 1.7041-0.0426 2.664-0.04311z" style="paint-order:markers fill stroke"/>
  <path d="m12.144 4.5329c-2.7713 0-5.0334 2.2607-5.0334 5.032s2.2621 5.0334 5.0334 5.0334 5.032-2.2621 5.032-5.0334-2.2607-5.032-5.032-5.032zm0 1.3421c2.0465 0 3.6899 1.6434 3.6899 3.6899 0 2.0465-1.6434 3.6914-3.6899 3.6914s-3.6914-1.6449-3.6914-3.6914c0-2.0465 1.6449-3.6899 3.6914-3.6899z" style="paint-order:markers fill stroke"/>
 </g>
</svg>
