<?xml version="1.0" encoding="UTF-8"?>
<svg width="32" height="32" version="1.1" viewBox="0 0 32 32" xmlns="http://www.w3.org/2000/svg">
<g stroke="currentColor" fill="currentColor">
 <path d="m14.001 17.5c-0.26861-0.0019-0.53067-6e-3 -0.80273-0.0059-1.0538 5.56e-4 -2.1031 0.01581-2.9395 0.04687-0.41819 0.01554-0.7822 0.03605-1.0762 0.06055s-0.40925-0.01199-0.78906 0.13672c-1.5627 0.61188-2.9857 2.2848-4.0879 3.9199-0.55111 0.81755-0.98936 1.6102-1.2129 2.3535-0.11176 0.37166-0.19066 0.73565-0.10156 1.1738 0.089094 0.43818 0.53216 0.948 1.0176 1.0645l0.10547 0.02539h15.828c-0.87011-0.54766-1.6848-1.1554-2.416-1.8222h-12.643c0.14217-0.42998 0.46947-1.0888 0.93359-1.7773 0.93856-1.3923 2.4523-2.8645 3.1641-3.2031 0.017909 0.0019 0.18324-0.04053 0.35352-0.05469 0.24689-0.02058 0.59104-0.03978 0.99219-0.05469 0.80229-0.02981 1.8368-0.04438 2.873-0.04492 0.35599-1.87e-4 0.7032 0.0026 1.0508 0.0059-0.1483-0.58673-0.23469-1.1959-0.25-1.8242z" stroke="none" style="paint-order:markers fill stroke"/>
 <ellipse cx="13.231" cy="10.469" rx="4.048" ry="4.0403" fill="none" stroke-width="1.823" style="paint-order:markers fill stroke"/>
 <path d="m17.14 17.241c1.9501 0.14577 3.7251 0.08499 5.4985-1.2497v9.5811c-3.2344-2.0828-5.4985-4.9988-5.4985-8.3314zm10.997 0c-1.9501 0.14577-3.7251 0.08499-5.4985-1.2497v9.5811c3.2344-2.0828 5.4985-4.9988 5.4985-8.3314z" fill="none" stroke-linecap="round" stroke-linejoin="round" stroke-width="1.823" style="paint-order:markers fill stroke"/>
</g>
</svg>
